<?xml version="1.0" encoding="UTF-8"?>
<svg version="1.1" viewBox="0 0 2000 2000" width="500" height="500" xmlns="http://www.w3.org/2000/svg">
<path transform="translate(0)" d="m0 0h2e3v2e3h-2e3z" fill="#FBFBFB"/>
<path transform="translate(438,1631)" d="m0 0h27l16 3 16 6 15 8 12 9 13 12 8 10 10 17 5 13 4 14 1 6v31l-2 13-6 18-9 17-8 11-9 10-7 7-14 10-14 7-15 5-13 3-25 1-18-2-16-5-16-7-13-9-10-9-7-7-12-17-8-15-5-15-3-15v-31l2-12 7-19 8-15 9-12 9-10 11-9 14-9 16-7 19-5z" fill="#FCFCFC"/>
<path transform="translate(717,184)" d="m0 0h28l19 4 13 5 14 7 11 8 12 11 10 11 9 15 6 14 4 14 2 15v18l-2 17-3 12-9 21-8 12-8 10-11 11-15 10-14 7-16 5-9 2-12 1h-19l-15-2-16-5-19-9-11-8-10-9-11-13-7-11-7-14-4-11-4-22v-24l2-14 6-18 9-17 8-11 12-13 12-10 16-9 16-6 13-3z" fill="#FCFCFC"/>
<path transform="translate(1782,1307)" d="m0 0h29l17 3 16 6 17 9 11 8 12 11 9 12 9 16 6 15 3 11 2 15v15l-3 21-6 18-8 15-12 16-11 11-12 9-19 10-14 5-16 3h-27l-20-4-13-5-14-7-12-9-10-9-9-10-11-18-7-16-4-15-2-16v-13l2-16 4-14 7-16 6-10 9-12 6-7 11-9 8-6 14-8 17-6z" fill="#FCFCFC"/>
<path transform="translate(196,492)" d="m0 0h27l13 2 19 6 11 6 14 9 4 3v2l4 2 8 8 8 11 9 15 5 13 3 7 3 14v30l-3 14-3 10-7 17h-2l-2 7-9 12-12 13-13 10-14 8-16 6-12 3-17 1h-17l-13-2-21-7-11-6-10-7-10-8-11-11-11-16-8-16-4-11-3-15v-26l2-15 4-14 5-12 11-18 16-17 12-9 13-8 15-6 17-4z" fill="#FCFCFC"/>
<path transform="translate(1486,141)" d="m0 0h29l20 4 13 5 18 10 14 12 10 11 10 15 8 18 4 14 1 6v33l-3 17-6 16-7 13-10 14-13 13-12 9-19 10-17 5-13 2h-25l-17-3-15-5-16-8-13-9-12-12-11-14-10-18-6-20-2-14v-21l3-21 6-16 9-16 8-10 10-11 14-11 14-8 12-5 16-4z" fill="#FBFBFB"/>
<path transform="translate(1071,1015)" d="m0 0h24l14 4 12 7 7 6 4 7v8l3-1 3-8 9-10 10-7 13-5 6-1h22l13 4 7 4 6 5 8 11 4 12v8l-63 1v10l4 15 6 10 6 4 9 2h10l9-3 8-6 8-13h3l-3 9-8 10-9 7-12 5-10 2h-11l-15-2-13-5-11-8-7-9-3-6v-2h-2l-2 7-6 8-7 7-8 5-13 4-6 1h-13l-16-3-12-5-9-7-9-9-4-7-3-13v-9l4-14 6-10 7-7 10-7 13-5z" fill="#9F4091"/>
<path transform="translate(853,1015)" d="m0 0h23l10 4 9 6 8 9 5 10 2 9v17l-2 12-6 11-9 10-10 6-14 3h-10l-10-2-8-6-1-1v31l2 13 7 3 11 2v3l-7 1-71-1v-3l12-2 4-4v-118l-3-6-1-1-10-2v-3h55l1 10 7-8 2-2z" fill="#9E4091"/>
<path transform="translate(438,1631)" d="m0 0h27l16 3 16 6 15 8 12 9 13 12 8 10 10 17 5 13 4 14 1 6v31l-2 13-6 18-9 17-8 11-9 10-7 7-14 10-14 7-15 5-13 3-25 1-18-2-16-5-16-7-13-9-10-9-7-7-12-17-8-15-5-15-3-15v-31l2-12 7-19 8-15 9-12 9-10 11-9 14-9 16-7 19-5zm1 15-19 3-16 6-14 9-10 8-8 8-8 11-8 15-5 17-2 17v12l2 14 7 21 6 11 10 13 9 9 14 10 14 7 13 4 11 2h26l18-4 12-5 11-6 12-9 11-11 7-10 8-16 4-12 2-12v-27l-3-16-5-13-8-14-8-10-9-9-14-10-17-8-16-4-10-1z" fill="#FF5E5D"/>
<path transform="translate(717,184)" d="m0 0h28l19 4 13 5 14 7 11 8 12 11 10 11 9 15 6 14 4 14 2 15v18l-2 17-3 12-9 21-8 12-8 10-11 11-15 10-14 7-16 5-9 2-12 1h-19l-15-2-16-5-19-9-11-8-10-9-11-13-7-11-7-14-4-11-4-22v-24l2-14 6-18 9-17 8-11 12-13 12-10 16-9 16-6 13-3zm-3 15-15 3-13 5-11 6-13 10-10 10-9 13-7 14-5 17-1 7v28l5 19 5 12 7 11 8 10 10 10 13 9 15 7 18 5 7 1h21l15-3 14-5 15-8 13-10 9-9 9-13 8-17 4-16 1-9v-20l-3-17-5-13-8-14-10-13-10-9-15-10-15-7-11-3-8-1z" fill="#FF9051"/>
<path transform="translate(196,492)" d="m0 0h27l13 2 19 6 11 6 14 9 4 3v2l4 2 8 8 8 11 9 15 5 13 3 7 3 14v30l-3 14-3 10-7 17h-2l-2 7-9 12-12 13-13 10-14 8-16 6-12 3-17 1h-17l-13-2-21-7-11-6-10-7-10-8-11-11-11-16-8-16-4-11-3-15v-26l2-15 4-14 5-12 11-18 16-17 12-9 13-8 15-6 17-4zm1 14-17 3-15 5-15 9-14 12-11 14-8 14-6 16-2 12v26l4 18 7 17 9 14 11 12 14 11 16 8 17 5 14 2h11l16-2 16-5 17-8 9-7 10-9 9-11 7-11 7-17 3-21v-17l-2-16-5-15-8-15-10-13-12-11-18-11-13-5-13-3-8-1z" fill="#9F4091"/>
<path transform="translate(1782,1307)" d="m0 0h29l17 3 16 6 17 9 11 8 12 11 9 12 9 16 6 15 3 11 2 15v15l-3 21-6 18-8 15-12 16-11 11-12 9-19 10-14 5-16 3h-27l-20-4-13-5-14-7-12-9-10-9-9-10-11-18-7-16-4-15-2-16v-13l2-16 4-14 7-16 6-10 9-12 6-7 11-9 8-6 14-8 17-6zm7 16-16 2-15 5-13 7-12 9-10 10-11 16-7 15-4 16-1 8v23l4 18 6 15 10 16 12 13 13 10 16 8 12 4 10 2 19 1 20-2 16-5 14-7 12-8 13-13 9-13 7-14 4-12 2-13v-25l-3-17-5-13-8-14-8-10-11-11-15-10-13-6-17-4-12-1z" fill="#0098BB"/>
<path transform="translate(1486,141)" d="m0 0h29l20 4 13 5 18 10 14 12 10 11 10 15 8 18 4 14 1 6v33l-3 17-6 16-7 13-10 14-13 13-12 9-19 10-17 5-13 2h-25l-17-3-15-5-16-8-13-9-12-12-11-14-10-18-6-20-2-14v-21l3-21 6-16 9-16 8-10 10-11 14-11 14-8 12-5 16-4zm-2 14-14 3-13 5-14 8-11 9-9 9-8 11-8 15-6 18-2 13v15l4 21 5 14 9 16 12 14 12 10 14 8 15 6 14 3h31l18-4 12-5 16-10 13-12 9-11 9-16 5-14 2-9 1-9v-16l-3-19-4-12-7-14-9-12-7-8-14-11-12-7-16-6-15-3z" fill="#0098BB"/>
<path transform="translate(955,1015)" d="m0 0h21l11 2 12 5 6 4 5 6 2 7v47l1 10 1 3h6l3-2 3-10 2-1v11l-5 7-10 6-14 2-10-1-10-6-5-7h-2l-3 5-5 4-9 4-6 1h-13l-9-3-6-4-5-5-4-10v-10l5-10 7-6 8-3 21-2 17-4v-26l-2-8-2-1h-10l-4 2 2 6 5 6 1 2v7l-4 6-4 3-9 3-9 1-7-2-8-6-2-4v-6l5-9 6-5 10-5 10-3z" fill="#9F4091"/>
<path transform="translate(420,1748)" d="m0 0h85l9 3 6 7 3 8v15l-6 10-5 4h-102l-31-1-1-3 6-12v-12l-3-5-3-4v-3l129 1 5 5 2 5v13l-5 8-5 3 2 1 6-2 5-5 2-4v-13l-3-7-4-5-4-2-89-1z" fill="#FCFCFC"/>
<path transform="translate(777,1013)" d="m0 0h2l1 4-1 35-4-2-9-17-9-10-3-2-16-1-5 1-3 4v7l5 5 16 9 13 7 11 8 6 7 3 9v10l-4 10-8 7-11 5-8 2h-21l-11-4-10-6h-5l-4 9-1 2-4-1 1-42 4 1 5 13 6 11 9 8 10 4h11l6-3 2-4v-6l-6-7-18-10-11-6-12-11-4-7v-14l5-10 8-7 11-5 7-1h15l9 2 8 4 3 2h5l4-6z" fill="#A04090"/>
<path transform="translate(1083,896)" d="m0 0h56l1 1 1 95 1 2 12 3-1 3h-70l-1-2 1-2 11-1 4-3v-85l-5-5-9-2z" fill="#FCFCFC"/>
<path transform="translate(516,1703)" d="m0 0h3l-1 4-5 7-1 5 2 9 5 7-4 1h-107l-13-1-5-3-4-5-2-5 1-8 4-6 3-3 3-1h100z" fill="#FCFCFC"/>
<path transform="translate(689,913)" d="m0 0h63v2l-13 1-1 3-1 83 15-1 8-3 9-8 8-10 10-17 2-3h2l1 2v42l-1 1h-102l1-3 10-2 4-1-1-79-1-4-12-1z" fill="#9F4091"/>
<path transform="translate(1083,1019)" d="m0 0h9l4 2v10l-3 7v9l6 8 6 4 4 1h9l8-2 4-4h2v25l-8 11-3 4h-2v2l-9 6-8 3h-9l-10-3-7-6-4-8-3-11-1-7v-23l3-14 6-10 3-3z" fill="#FCFCFC"/>
<path transform="translate(824,944)" d="m0 0h12l10 4 8 8 5 11v5l-3 1h-35v8l4 11 3 5 6 3h8l6-3h2v-2l5-5 5-4 7-9 3-2 24-3v2l-5 3-1 3v17l2 3 6 1-2 3-7 3h-12l-8-4-5-6-1-8-5 4-7 8-10 5-4 1h-13l-10-3-6-4-8-9-2-5v-21l6-9 8-7 9-4z" fill="#A04090"/>
<path transform="translate(1465,1703)" d="m0 0 11 1 9 5 7 8 3 7v16l-3 8-5 6-8 4-13 2-11-2-7-4-7-10-2-7v-10l4-10 7-8 6-4z" fill="#F8F7F8"/>
<path transform="translate(1358,1711)" d="m0 0h8l9 2 9 3h21l8 5 1 3-2 2-5-3h-19l1 4 15-3 8 4-2 19-2 11-1 1-20 2-4 2-6-1-23-8-5-4 2-17 3-18z" fill="#352A37"/>
<path transform="translate(1435,1785)" d="m0 0h13l10 4 5 4 5 7 2 5 1 11-2 9-6 8-7 6-6 2h-6l4-3 8-4 1-2-6-1-9-6-5-3 1 13 3 6h-8l-6-2-3-2v-2l-4-2-5-7-2-6-1-8 2-9 6-9 7-6z" fill="#372A38"/>
<path transform="translate(200,531)" d="m0 0 10 1 2 2 2 5 6-1 5-1 6 4 3 8-2 6-3 4 1 4 2 4v8l-5 5-5 2-12-1-6 6-7 1-7-6-2-4-1-8-7-4-3-6 1-7 3-5 7-3h3v-8l4-5z" fill="#FCFCFC"/>
<path transform="translate(849,1020)" d="m0 0h7l5 4 5 10 2 8v34l-2 15-4 10-6 5-7-1-7-3-2-3-1-8v-51l2-12z" fill="#FCFCFC"/>
<path transform="translate(685,236)" d="m0 0h107v63l-1 1h-62l-1-4 60-1v-54l-4-1h-96l1 11 10 5 5 6 2 7-1 10-6 8-8 4h-9l-8-4-5-6-1-2v-14l4-8 6-4 5-2 1-14z" fill="#352A37"/>
<path transform="translate(890,944)" d="m0 0h10l12 3 8 6 4 5 1 40h6l-2 6-7 3h-12l-8-5-4-3v-26l-3-2 3-5v-8l-2-9-1-1-10-1 3 7 3 5-2 7-4 3-3 1h-11l-5-3-2-3v-6l2-3h2l2-4 10-5z" fill="#A04090"/>
<path transform="translate(420,1748)" d="m0 0h85l9 3 6 7 3 8v15l-6 10-5 4h-102l-31-1-1-3 6-12v-12l-3-5-3-4v-3l129 1 5 5 2 5v13l-5 8-5 3 2 1 6-2 5-5 2-4v-13l-3-7-4-5-4-2-89-1zm-35 10 1 5 1 2v16l-4 7 1 1h103l16-1 7-7 2-9-3-10-4-3-4-1z" fill="#392A36"/>
<path transform="translate(720,331)" d="m0 0h68l1 2v23h-70v-24z" fill="#FCFCFC"/>
<path transform="translate(933,943)" d="m0 0h32l2 4 1 53 7 1v2h-42l2-3 4-1v-51l-1-2-5-2z" fill="#A04090"/>
<path transform="translate(1248,983)" d="m0 0 3 1 2 4 5 1 32 1 10 3 6 7 2 6v8l-3 6-5 5-10 4-8 2h-20l-12-3-6-5-1-2v-6l4-3h2l-1 8 1 4 5 1 6 2 18 1 12-2 9-5v-7l-3-1-44-1-3-1-5-5-4-3v-10l6-9z" fill="#9E4091"/>
<path transform="translate(1e3 943)" d="m0 0h31l2 5v50l1 2 4 2-2 1h-39l1-2 6-2 1-2v-48z" fill="#A04090"/>
<path transform="translate(1043,942)" d="m0 0h16l7 3 7 6 2 5 1 46-4 1h-26l-1-2h2v-52l-11-2 1-3z" fill="#9F4091"/>
<path transform="translate(1162,943)" d="m0 0h27l1 5h2v51l2 3-30 1-3-2 2-1v-53l-4-3z" fill="#9E4091"/>
<path transform="translate(1206,941)" d="m0 0h7l10 3 8 6 3 9v41h2v3l-36-1 3-2h4v-43l-1-8-9-1h-5l5-4z" fill="#A04090"/>
<path transform="translate(725,311)" d="m0 0h20l1 15 15 1v-15l1-1h20l1 1v15h8l1 5v27l-3 1h-73l-2-1 1-31 8-1v-11zm-5 20-1 1v24h70v-23l-1-2z" fill="#362A37"/>
<path transform="translate(1114,840)" d="m0 0h10l6 3 5 4 5 8v12l-6 9-7 4-4 1h-10l-6-3-5-5-3-7v-12l4-7 8-6z" fill="#FCFCFC"/>
<path transform="translate(1273,942)" d="m0 0 9 2 8 5 5 8 1 2v11l-4 6-10 7-10 1-2-2 4-2 1-2v-29l-2-4-5 1-2 2v30l3 6h-8l-8-2-8-14-1-6 5-10 7-6 6-3z" fill="#A14190"/>
<path transform="translate(1081,893)" d="m0 0h61l1 1 1 41v57h8l4 1 2 9-2 2h-73l-4-1 2-4h72l1-2-12-2-2-3-1-95h-40l-16-1 1 3 11 3 4 5v85l-5 4h-11v2h-2l2-5 2-1 11-1-1-85-12-2-2-1-1-5z" fill="#382A39"/>
<path transform="translate(516,1703)" d="m0 0h3l-1 4-5 7-1 5 2 9 5 7-4 1h-107l-13-1-5-3-4-5-2-5 1-8 4-6 3-3 3-1h100zm-9 4-86 1-1 2-12-1v-1h-13l-5 4-2 4v9l5 6 2 1h117v-3l-2-2-1-12 3-6-1-2z" fill="#372A38"/>
<path transform="translate(683,300)" d="m0 0h17l1 1 1 38-1 1h-29l-1-1v-27l2-7 5-4z" fill="#FCFCFC"/>
<path transform="translate(268,562)" d="m0 0 7 1 4 4 3 32v25l-3 13-4 8-9 10-7 7-6 9-3 6-4-1 3-10 7-9 11-12 6-10 3-11v-24l-2-30-3-3-2 1-1 36h-4l-1-3v-24l-3 1v26l-3 1-2-7-1-11h-2l-1 2 1 14 1 6-5-2-2-5-1-14 3-5 6-5 4-6 5-2 3-7z" fill="#332935"/>
<path transform="translate(146,562)" d="m0 0h6l4 4 2 4 6 4 9 10 2 3v10l-2 9-2 2h-3l1-19-3-3-2 17-5 2 1-19 1-6-2-3h-2l-1 27h-4l-1-35-5-2-2 33v24l4 13 6 9 11 12 7 11 2 7-3 1-3-3-5-10-12-13-6-7-4-8-2-7v-36l2-25 3-5z" fill="#322934"/>
<path transform="translate(1802,1381)" d="m0 0 7 1 7 4 4 6-1 5-3 7-8 7 6-3 4-6h2l-1 6-5 5-3 2-15 1-6-5-4-9 1-9 4-7 7-4z" fill="#F9F9F9"/>
<path transform="translate(1180,1019)" d="m0 0h10l5 3 3 7 1 5v21h-27v-18l4-14z" fill="#FCFCFC"/>
<path transform="translate(1791,1356)" d="m0 0h21l12 2 9 5 8 7 6 10 1 3v27l-3 12-11 21-2 13 2 17 1 8-3-2-4-11v-21l13-26 3-10 1-8v-12l-3-12-6-8-6-5-10-5-4-1h-28l-13 4-9 5-3 3h-2l-2 4-6 8-4 15v13l-6 9-3 6 1 4 4 3v4l-4-1-5-7 1-6 7-12v-10l3-12 4-9 4-6 4-5 8-6 12-6z" fill="#372A38"/>
<path transform="translate(738,260)" d="m0 0 2 1v5l-30 30h-2l-1 3-1 44-1 1h-37v-35l2-7 5-4 6-2 20-1 5-3 29-29h2zm-55 40-7 2-4 4-1 6v27l1 1h29l1-4-1-35-1-1z" fill="#332935"/>
<path transform="translate(893,972)" d="m0 0 1 2-5 3-1 3v17l2 3 6 1-2 3-7 3h-12l-8-4-5-6-1-4v-9l7-8 9-2z" fill="#9F4091"/>
<path transform="translate(681,257)" d="m0 0h10l7 4 3 7v9l-4 6-8 4-9-1-5-3-3-4-1-4v-7l3-6 5-4z" fill="#FCFCFC"/>
<path transform="translate(200,531)" d="m0 0 10 1 2 2 2 5 6-1 5-1 6 4 3 8-2 6-3 4 1 4 2 4v8l-5 5-5 2-12-1-6 6-7 1-7-6-2-4-1-8-7-4-3-6 1-7 3-5 7-3h3v-8l4-5zm-1 4-4 4-1 2v6l1 2-5-1-7 4-1 8 7 8h3l-1 5 3 7 5 3 5-1 5-4 2-2 5 2 7-1 4-3 1-6-2-6 1-6 2-4-1-6-4-4-6-1-5 3-2-4-5-5z" fill="#362A38"/>
<path transform="translate(1499,268)" d="m0 0 7 1 1 1 1 17v9l8 16v3h-3l-2-7-5 1h-16l-4 6-2-2 9-18-1-14 1-10 2-2z" fill="#3E2B3E"/>
<path transform="translate(969,1057)" d="m0 0 2 1v38l-7 7h-6l-4-5-1-3v-21l4-9 5-4 6-3z" fill="#FCFCFC"/>
<path transform="translate(1273,942)" d="m0 0 9 2 8 5 5 8 1 2v11l-4 6-10 7-10 1-2-2 4-2 1-2v-29l-2-4z" fill="#9F4091"/>
<path transform="translate(156,607)" d="m0 0 9 1 5 5 14 15 8 7 4 5 3 12 4 21v3h-5l-3-13-4-19-4-6-14-12-9-11-7-3 2 8 9 16 3 4v4l-5-2-9-14-5-9v-10z" fill="#342935"/>
<path transform="translate(257,607)" d="m0 0h9l2 4v8l-8 14-7 10h-4l2-6 7-11 5-11v-2h-5l-9 10-7 8-8 6-5 6-6 30-2 4-4-2 6-31 3-7 17-16 9-10 1-2z" fill="#342936"/>
<path transform="translate(978,942)" d="m0 0h9l5 2 6 7 1 9-5 7-6 3h-6l-7-4-3-5 1-7 2-5-3-2 2-4z" fill="#9F4091"/>
<path transform="translate(1465,1703)" d="m0 0 11 1 9 5 7 8 3 7v16l-3 8-5 6-8 4-13 2-11-2-7-4-7-10-2-7v-10l4-10 7-8 6-4zm1 3-10 3-8 7-5 10v11l4 10 4 5 8 4 7 1 13-2 8-6 5-10v-14l-5-10-8-6-5-2z" fill="#372A38"/>
<path transform="translate(385,1700)" d="m0 0h7l-9 6-5 8-1 7 3 10 5 5 7 3 127 1-1 3h-126l-9-3-5-5-3-5-1-5v-9l3-9 4-5z" fill="#322934"/>
<path transform="translate(204,546)" d="m0 0h8l5 4 3 6v6l-6 8-3 3-9-2-7-5-1-2v-9l2-6z" fill="#342935"/>
<path transform="translate(1115,836)" d="m0 0h9l10 5 7 8 3 9v8l-4 8-7 7-7 3h-16l-8-6-5-6-2-5v-11l3-8 7-8zm-1 4-8 4-6 7-1 3v12l3 7 5 5 6 3h10l8-3 5-4 4-7v-12l-7-10-6-4-3-1z" fill="#342936"/>
<path transform="translate(1497,165)" d="m0 0 7 1 3 4 3 9 1 2v9l-3 4 1 6-5-1h-12l-1-7-2-5v-6l4-5 4-1 9 1-3-6-5-1-4 6h-1v-6z" fill="#3A2B3B"/>
<path transform="translate(1799,1379)" d="m0 0h13l6 4 5 8 1 15-6 8-6 5-9 1-7-1-8-5-4-6-2-6 1-9 3-6 7-6zm3 2-8 3-5 5-3 8 1 8 4 7 5 4 15-1 7-5 2-4v-4h-2l-4 6-6 3 9-8 3-8-1-5-4-5-8-4z" fill="#372A38"/>
<path transform="translate(1405,1734)" d="m0 0h2v10l-3 12-2 1-19 1v-11l2-9 2 1 14-1z" fill="#FCFCFC"/>
<path transform="translate(1356,1731)" d="m0 0 6 2 5 2 8 1 1 1-1 10-3 9-8-1-10-5-2-2 1-5 2-11z" fill="#FCFCFC"/>
<path transform="translate(892,1134)" d="m0 0h8l7 3 4 6v7l-3 5-7 3h-9l-1-1v-22z" fill="#332935"/>
<path transform="translate(1456,1809)" d="m0 0 9 1 2 1v11l-4 6-3 3-4-1-10-6-6-4 1-5 7-4z" fill="#FCFCFC"/>
<path transform="translate(1070,1140)" d="m0 0h11l2 1v19l-4 4h-13l-1-4 16-2v-2l-11 1-5-2-1-1v-7l3-5z" fill="#362A37"/>
<path transform="translate(826,947)" d="m0 0 8 2 2 4v15l-1 2h-15v-11l3-9z" fill="#FCFCFC"/>
<path transform="translate(1561,284)" d="m0 0h2l-1 4-2 1v7l7 11 1 7-5-5h-18l-3 4h-3l2-5 6-11 1-1v-8l4-1v8h4v-7l4-2z" fill="#3C2B3C"/>
<path transform="translate(1442,287)" d="m0 0h2l-1 8h9l8 13 2 6-6-5h-15l-3-1-3 6h-2l1-7 6-11v-8z" fill="#3C2B3C"/>
<path transform="translate(1216,1140)" d="m0 0h11l2 1v16l-7 2-7-1-3-5v-9z" fill="#342935"/>
<path transform="translate(1122,1140)" d="m0 0h7l6 5 1 3-2 6-6 5-7-1-5-6 1-8z" fill="#352937"/>
<path transform="translate(966,1140)" d="m0 0h7l6 6v7l-7 6-7-1-5-6 1-8z" fill="#342936"/>
<path transform="translate(1345,1851)" d="m0 0 4 2 8 7 9 6 19 9 18 5 15 2h17l14-2 13-3 18-8 7-4 2 1-8 5-13 6-14 5-18 3h-18l-15-2-18-5-17-8-12-8-11-10z" fill="#0098BB"/>
<path transform="translate(1155,1140)" d="m0 0h7l5 5v6l-4 7-2 1h-6l-5-4-1-2v-7l4-5z" fill="#312934"/>
<path transform="translate(1444,268)" d="m0 0 8 1 3 5v13l-3 4-1 3h-2l-2-7 4 1 2-4h-8l-5 1v2l-3-1v-2h2l-1-10 3-5z" fill="#3B2B3C"/>
<path transform="translate(1008,1140)" d="m0 0h7l4 4v7l-4 7-1 1h-6l-6-5v-7l4-6z" fill="#322934"/>
<path transform="translate(1499,268)" d="m0 0 7 1 1 1 1 17-1-2h-12l3 3-2 5-2 2-2-10 1-14 2-2z" fill="#352A38"/>
<path transform="translate(805,1688)" d="m0 0h2v7l-3 6-2 6-6 10-11 12-10 8-12 6-15 3h-8l-1-2 21-4 11-5 14-10 10-12 5-9 4-15z" fill="#352A37"/>
<path transform="translate(1551,268)" d="m0 0 8 1 3 4 1 5-2 6h-9l-3 1-1 2-3-1 1-5-1-1v-6l4-5z" fill="#3C2B3C"/>
<path transform="translate(855,1468)" d="m0 0 3 1-11 6-8 4-11 9-10 13-4 8-4 15-1 16h-4l2-21 6-16 8-11 15-15 8-4 7-4z" fill="#372A39"/>
<path transform="translate(1493,179)" d="m0 0h14l2 3v8l-3 3-9 1-5-4-1-2v-6z" fill="#FCFCFC"/>
<path transform="translate(1359,1335)" d="m0 0 9 1 12 3 16 8 12 11 8 10 4 7 4 11 1 6-4-1-4-15-8-12-7-8-12-9-14-6-3-1-12-1-2-1z" fill="#342935"/>
<path transform="translate(208,924)" d="m0 0 2 1v30l5 17 8 10 2 4 4 2 8 5 7 3v3l-5-1-13-8-7-7-7-10-4-11-1-9v-28z" fill="#342A36"/>
<path transform="translate(1469 1e3)" d="m0 0 9 3 14 6 11 8v2h2l9 11 8 15 1 9 2 5v8h-2l-4-19-5-12-9-12-8-8-10-6-11-4-8-3z" fill="#342935"/>
<path transform="translate(202,551)" d="m0 0h9l4 4v8l-4 4-4 1-5-2-3-3v-9z" fill="#FCFCFC"/>
<path transform="translate(1099,1134)" d="m0 0 10 1 3 3v7l-4 3-5 1v9h-5v-23z" fill="#322933"/>
<path transform="translate(1742,1440)" d="m0 0 4 2 1 6 1 15 3 4h10l10-2 4 7 1 10-4-1-2-11-18 1-6-3-2-2-2-21-1-4z" fill="#332935"/>
<path transform="translate(1490,200)" d="m0 0h2v3h5l-1 5-1 14-2 5h15l-3-7-2-14 1-2 4-1 1-3h2l-1 5-3 2 1 12 3 7 4 5 1 5-4-4-1-2-19-1-4 3-2 6-1-4 3-6 3-3 1-4v-15l-4-4z" fill="#412C41"/>
<path transform="translate(1459,1797)" d="m0 0 5 2 2 4-1 4h-13l-10 4-5 4-3-1 2-5 8-6 12-5z" fill="#FCFCFC"/>
<path transform="translate(883,908)" d="m0 0h12v13l-1 2h-11l-3-6 1-7z" fill="#342936"/>
<path transform="translate(729,715)" d="m0 0 3 1 4 15 8 14 7 8 12 9 15 7-1 2-5-1-15-8-13-12-9-13-5-13-2-8z" fill="#372A38"/>
<path transform="translate(1e3 1296)" d="m0 0h7l3 3 4 8 8 10 11 8 4 3 10 3 5 3v1l-9-1-4-3-8-3-14-12-10-13-3-4-1 9h-4z" fill="#362A37"/>
<path transform="translate(1525,1087)" d="m0 0 3 1 6 16 7 11 11 11 12 7 12 4 1 3-8-1-17-9v-2l-4-2-8-7-9-13-7-17z" fill="#372B39"/>
<path transform="translate(1441,1787)" d="m0 0 10 2 7 4v2l-16 6-5 2v2l-3 1 3-9 2-9z" fill="#FCFCFC"/>
<path transform="translate(1e3 1409)" d="m0 0h3l-1 9-2 3-2 7-6 10-11 12-10 8-14 7-3-1 3-3 14-7 13-11 8-11 5-9z" fill="#3D2B3E"/>
<path transform="translate(1301,943)" d="m0 0h6l4 4 1 5-3 5-1 1-7-1-4-3-2-5 1-5z" fill="#A3418F"/>
<path transform="translate(1495,601)" d="m0 0h4l-9 18-9 10-7 7-13 8-16 6-2-3 8-3 11-4 12-8 8-8 7-9 5-13z" fill="#352936"/>
<path transform="translate(485,1764)" d="m0 0h14l1 4v7l-1 1h-15v-11z" fill="#342936"/>
<path transform="translate(917,908)" d="m0 0h12l1 5v8l-3 2h-8l-2-2-1-9z" fill="#352936"/>
<path transform="translate(1532,200)" d="m0 0 9 5 8 7 5 10 4 12 1 1v5l-4 5-4-2-4-10 4-1 3 6 2 1-7-20-4-6-10-8-3-3z" fill="#382A39"/>
<path transform="translate(1051,649)" d="m0 0h5l-1 3-8 3-7 2-11 6-10 9-7 10-4 7-4 10-4 1 1-5 3-5 6-11 11-13 12-9 6-3 10-4z" fill="#362A37"/>
<path transform="translate(1468,200)" d="m0 0h2v3l-12 6-5 4-5 10 1 8 2 1-1 7-4 6-4-2-1-7 3-1 2 2-1-5v-10l5-10 8-7z" fill="#352936"/>
<path transform="translate(1046,1140)" d="m0 0h12l2 6v12h-4l-2-14-5-1-1 15h-4v-17z" fill="#372A38"/>
<path transform="translate(750,264)" d="m0 0h34v5h-33z" fill="#312933"/>
<path transform="translate(760,273)" d="m0 0h22l2 2-1 4h-32l-1-5z" fill="#492E48"/>
<path transform="translate(759,245)" d="m0 0h24v5l-3 1h-21l-9-1v-4z" fill="#402C40"/>
<path transform="translate(1174,1140)" d="m0 0h10l3 2 1 3v12l-4 1-1-14h-5l-1 3-1 11h-3l-1-3v-9z" fill="#332934"/>
<path transform="translate(1247,1012)" d="m0 0h2l-1 8 1 4 5 1 6 2 18 1h8v2l-4 1h-20l-12-3-6-5-1-2v-6z" fill="#A9438B"/>
<path transform="translate(1785,1425)" d="m0 0h2l3 5-9 16-2 2-5-1 1-5 9-16z" fill="#312933"/>
<path transform="translate(943,1140)" d="m0 0h9l3 2-1 4-10-2v8l2 3 5-1 4-2-1 4-3 3h-7l-5-6-1-6 3-5z" fill="#372A38"/>
<path transform="translate(1425,1810)" d="m0 0 4 1-2 7-2 4-2 7-5-5-2-5v-7z" fill="#FCFCFC"/>
<path transform="translate(896,1138)" d="m0 0 6 1 5 6-2 5-5 4h-4l-1-2v-13z" fill="#FCFCFC"/>
<path transform="translate(1433,1816)" d="m0 0h2v21l-2 1-6-4-2-2 1-6 3-6z" fill="#FCFCFC"/>
<path transform="translate(770,315)" d="m0 0 8 1 1 1v8l-1 1h-12l-1-1v-8z" fill="#FCFCFC"/>
<path transform="translate(734,315)" d="m0 0 6 1 1 1v8l-6 2-7-1-1-8 1-2z" fill="#FCFCFC"/>
<path transform="translate(1516,240)" d="m0 0 1 4-1 2h-32v-5h29z" fill="#352A37"/>
<path transform="translate(1509,303)" d="m0 0h2l5 9v3h-3l-2-7-5 1h-16l-4 6-2-2 3-6 3-3 3 1h16z" fill="#352A37"/>
<path transform="translate(981,1140)" d="m0 0 5 1 3 8v2h2l3-9 4-2v4l-5 12-4 2-3-5-5-11z" fill="#352936"/>
<path transform="translate(864,902)" d="m0 0h3l1 5 7 1 1 2v12l-4 1-1-11-3-1v11l-4 1z" fill="#342935"/>
<path transform="translate(926,1140)" d="m0 0h6l1 4h-5l4 5v3l4-1-2 5-4 3h-5l-1-4h7v-2l-4-1-3-4-1-5z" fill="#362A37"/>
<path transform="translate(759,255)" d="m0 0h25v4h-34v-3z" fill="#3A2A3B"/>
<path transform="translate(1772,1140)" d="m0 0 5 1 10 6 8 7 5 11 1 8-4-2-2-9-4-7-8-7-11-5z" fill="#382A39"/>
<path transform="translate(813,903)" d="m0 0 3 1v4h6l1 1 1 13-3 1-1-12-4 1v10l-4 1v-19z" fill="#362B39"/>
<path transform="translate(800,903)" d="m0 0h6l2 4h-6l2 4 4 4-1 5-4 4-5-2-2-2 1-4h2l2 4h2l-1-6-2-3-3-1v-5z" fill="#342936"/>
<path transform="translate(932,907)" d="m0 0 4 2v3l3 1v2h2l2-5 4-3 2 1-5 7-1 5-2 1-2 7-4-1v-12l-4-7z" fill="#352936"/>
<path transform="translate(1460,1714)" d="m0 0 4 1 3 9 3 10-5 2-2 4-4 2-3-1 8-8-1-7-4-8z" fill="#372A38"/>
<path transform="translate(900,908)" d="m0 0h10l2 6v8l-4 1-1-11-4-1v11h-4v-10z" fill="#392A3A"/>
<path transform="translate(1379,1723)" d="m0 0 4 1v15l-2 5-1 12-1 2-3-1v-8l3-10z" fill="#FCFCFC"/>
<path transform="translate(1193,1134)" d="m0 0h3l2 5 2 4h-2v14l-5 1-1-18z" fill="#312933"/>
<path transform="translate(421,1711)" d="m0 0 2 1v9l-2 1-2-1h-14v-7h4l11 1z" fill="#342936"/>
<path transform="translate(1235,1133)" d="m0 0h3l1 10v15h-5v-24z" fill="#392A3A"/>
<path transform="translate(1432,1789)" d="m0 0h4l-1 9-3 7-4-2-2-5v-5l3-3z" fill="#FCFCFC"/>
<path transform="translate(1141,1133)" d="m0 0 3 2 2 8h-2v16h-3l-1-3v-13l-3-1 2-3z" fill="#342936"/>
<path transform="translate(957,772)" d="m0 0 9 1 3 2 6 2 8 6 10 9 2 2-5 1-10-11-9-6-13-2z" fill="#372A38"/>
<path transform="translate(837,902)" d="m0 0 3 2 1 7h3l1-3h3v3l-4 3-3 8-4 1-1-20z" fill="#322933"/>
<path transform="translate(1509,200)" d="m0 0h2l-1 5-3 2 1 12 3 7 4 5 1 5-4-4-1-2-12-1v-2h9l-3-7-2-14 1-2 4-1z" fill="#322934"/>
<path transform="translate(1551,271)" d="m0 0 7 1 2 2 1 6-9 1-5-2 1-5z" fill="#FCFCFC"/>
<path transform="translate(916,1132)" d="m0 0h2l1 3v23l-5-1v-10l1-14z" fill="#352936"/>
<path transform="translate(1444,271)" d="m0 0 7 1 2 5v3l-2 1h-7l-3-1-1-5z" fill="#FCFCFC"/>
<path transform="translate(1123,1143)" d="m0 0 5 1 3 3-1 6-5 3-4-3-1-4z" fill="#FCFCFC"/>
<path transform="translate(968,1143)" d="m0 0 5 2 2 2-1 6-6 3-4-5 1-5z" fill="#FCFCFC"/>
<path transform="translate(1203,1133)" d="m0 0h4l1 23-1 2h-4z" fill="#342935"/>
<path transform="translate(377,1748)" d="m0 0h23l2 1-1 3h-21l-3-1z" fill="#342936"/>
<path transform="translate(1357,1724)" d="m0 0h9l6 3 1 5-1 1-7-1-7-4z" fill="#FCFCFC"/>
<path transform="translate(1497,271)" d="m0 0h6l2 3v6l-1 1h-7l-2-2 1-7z" fill="#FCFCFC"/>
<path transform="translate(385,1700)" d="m0 0h7l-9 6-5 8-1 7-1 4h-2v-9l3-9 4-5z" fill="#482E47"/>
<path transform="translate(1e3 1409)" d="m0 0h3l-1 9-2 3-2 7-6 10-2-1 2-5 5-9z" fill="#352A37"/>
<path transform="translate(1217,1144)" d="m0 0h7l1 6-2 5-4 1-3-4v-6z" fill="#FCFCFC"/>
<path transform="translate(1421,1797)" d="m0 0 3 1 2 5v5l-7 3h-3l1-6z" fill="#FCFCFC"/>
<path transform="translate(1500,299)" d="m0 0 7 1 2 2v3l-17 1v-5l1-1z" fill="#FCFCFC"/>
<path transform="translate(770,1736)" d="m0 0m-3 1h3v2l-7 4-15 3h-8l-1-2 21-4z" fill="#332934"/>
<path transform="translate(1071,1144)" d="m0 0h6l2 2v5l-4 1-2 3v-2l-4-1-1-5z" fill="#FCFCFC"/>
<path transform="translate(1026,1140)" d="m0 0h6l-2 4-1 3v11l-3 1-2-3v-9z" fill="#3A2B3B"/>
<path transform="translate(1036,1133)" d="m0 0h3l1 22-1 3h-3l-1-13 1-6z" fill="#352936"/>
<path transform="translate(852,908)" d="m0 0h7l-1 7 1 1v7h-7l3-7h-2l-1-2z" fill="#332935"/>
<path transform="translate(1399,1728)" d="m0 0 5 1 1 4-8 3h-6l-2-1v-3l9-3z" fill="#FCFCFC"/>
<path transform="translate(1359,1715)" d="m0 0 11 4 3 1v-2l3 1-1 5-2 1-10-4-7-2 1-3z" fill="#FCFCFC"/>
<path transform="translate(828,902)" d="m0 0h3l1 6v15h-4z" fill="#322934"/>
<path transform="translate(993,800)" d="m0 0 9 1 1 3-1 8h-5l-3-9z" fill="#362A37"/>
<path transform="translate(1443,299)" d="m0 0 9 1 3 5-2 1-14-1 1-5z" fill="#FCFCFC"/>
<path transform="translate(1051,649)" d="m0 0h5l-1 3-8 3-7 2-11 6h-3l7-6 6-3 10-4z" fill="#312933"/>
<path transform="translate(1e3 1280)" d="m0 0 5 1 1 1v11l-6-1-1-11z" fill="#332935"/>
<path transform="translate(996,848)" d="m0 0h7v12h-6z" fill="#332935"/>
<path transform="translate(208,924)" d="m0 0 2 1v28h-3v-28z" fill="#462D46"/>
<path transform="translate(996,832)" d="m0 0h6l1 1v11h-6z" fill="#332935"/>
<path transform="translate(996,816)" d="m0 0h6l1 1v11h-6z" fill="#322934"/>
<path transform="translate(1551,299)" d="m0 0 8 1 2 2v3l-14 1-1-2 2-4z" fill="#FCFCFC"/>
<path transform="translate(1468,200)" d="m0 0h2v3l-12 6-5 4-4 7-3 1 2-6 6-7 11-7z" fill="#452D44"/>
<path transform="translate(1e3 1216)" d="m0 0 6 1-1 11h-5z" fill="#342936"/>
<path transform="translate(1e3 1232)" d="m0 0 5 1 1 3-1 8h-5z" fill="#322934"/>
<path transform="translate(1e3 1264)" d="m0 0 5 1 1 2-1 9h-5z" fill="#322934"/>
<path transform="translate(885,911)" d="m0 0h5l1 1v8l-4 1-3-4v-5z" fill="#FCFCFC"/>
<path transform="translate(1e3 1248)" d="m0 0 5 1v11h-5z" fill="#312933"/>
<path transform="translate(1497,165)" d="m0 0 7 1 3 4v5l-2-1-3-5-5 1-4 5v-6z" fill="#322934"/>
<path transform="translate(919,911)" d="m0 0h6l1 1v6l-2 3-4-2z" fill="#FCFCFC"/>
<path transform="translate(1502,289)" d="m0 0 3 3-1 4h-8l-1-3 2-3z" fill="#FCFCFC"/>
<path transform="translate(958,908)" d="m0 0 8 1v3h-2l-1 3-5 2-1-7z" fill="#332934"/>
<path transform="translate(997,769)" d="m0 0h5l1 2-1 8h-5z" fill="#3F2C40"/>
<path transform="translate(997,785)" d="m0 0h5l1 2v8h-7v-2h2z" fill="#4D324B"/>
<path transform="translate(1509,200)" d="m0 0h2l-1 5-3 2 1 13h-3l-2-14 1-2 4-1z" fill="#422C42"/>
<path transform="translate(1416,1704)" d="m0 0 4 1-2 3-13 3 1-4z" fill="#352936"/>
<path transform="translate(1e3 1201)" d="m0 0 5 1v10h-5z" fill="#422C42"/>
<path transform="translate(997,753)" d="m0 0h5l1 2-1 8h-5z" fill="#392A3A"/>
<path transform="translate(1497,521)" d="m0 0 5 1v9h-5z" fill="#452D44"/>
<path transform="translate(1497,489)" d="m0 0 5 1v9h-5z" fill="#452D44"/>
<path transform="translate(1497,473)" d="m0 0 5 1v9h-5z" fill="#452D44"/>
<path transform="translate(1396,1820)" d="m0 0 5 1 7 3v4l-6-1-6-4z" fill="#3A2A3A"/>
<path transform="translate(999,704)" d="m0 0 5 1-1 9-5 1z" fill="#402C40"/>
<path transform="translate(1497,505)" d="m0 0 5 1v9h-5z" fill="#402C40"/>
<path transform="translate(1422,1412)" d="m0 0 4 1 1 1v9h-5z" fill="#3C2B3D"/>
<path transform="translate(997,737)" d="m0 0h5l1 2-1 8h-5z" fill="#332935"/>
<path transform="translate(972,1453)" d="m0 0m-1 1m-1 1m-2 1h2l-1 3-12 6-3-1 3-3z" fill="#392D3E"/>
<path transform="translate(998,720)" d="m0 0 5 2-1 9h-5v-10z" fill="#352A37"/>
<path transform="translate(1429,1704)" d="m0 0 10 2 2 4-7-1-6-2z" fill="#382A39"/>
<path transform="translate(1404 1e3)" d="m0 0h11v4h-10z" fill="#412C41"/>
<path transform="translate(1497,537)" d="m0 0 5 1v8l-5 1z" fill="#3A2B3B"/>
<path transform="translate(1422,1428)" d="m0 0 5 2v9h-5z" fill="#3A2B3B"/>
<path transform="translate(1798,1192)" d="m0 0 4 1v10h-4z" fill="#492E48"/>
<path transform="translate(617,996)" d="m0 0h10l1 4h-11z" fill="#442D44"/>
<path transform="translate(345,996)" d="m0 0h10v4h-10z" fill="#382A39"/>
<path transform="translate(1483,1766)" d="m0 0 4 2-2 10-3 2-1-4z" fill="#382A39"/>
<path transform="translate(1362,1765)" d="m0 0 2 1 1 13-4-1v-12z" fill="#312933"/>
<path transform="translate(680,1743)" d="m0 0h9v4h-11v-3z" fill="#442F47"/>
<path transform="translate(807,1526)" d="m0 0 2 1v13h-4l1-12z" fill="#382A39"/>
<path transform="translate(1421,1397)" d="m0 0h5l1 10h-5z" fill="#452D44"/>
<path transform="translate(329,996)" d="m0 0h10v4h-10l-1-3z" fill="#362A37"/>
<path transform="translate(1413,647)" d="m0 0h10v4h-11z" fill="#3D2B3E"/>
<path transform="translate(1497,569)" d="m0 0 5 1-1 9h-4z" fill="#3B2B3B"/>
<path transform="translate(1497,284)" d="m0 0h8l2 1v2l-8 2-4-2v-2z" fill="#FCFCFC"/>
<path transform="translate(1377,1808)" d="m0 0 5 1 6 5-1 4-8-6z" fill="#332935"/>
<path transform="translate(1423,1524)" d="m0 0 4 2v9h-4z" fill="#482D47"/>
<path transform="translate(1e3 1296)" d="m0 0h7l-4 1v11h-4z" fill="#3D2B3E"/>
<path transform="translate(1421 1e3)" d="m0 0h10v4h-10z" fill="#3D2B3E"/>
<path transform="translate(601,996)" d="m0 0h9l2 1v3h-11l-1-3z" fill="#332935"/>
<path transform="translate(312,996)" d="m0 0h11v4h-11z" fill="#3D2B3E"/>
<path transform="translate(1458,642)" d="m0 0m-3 1h3v2l-13 5-2-3 8-3z" fill="#382A39"/>
<path transform="translate(1495,601)" d="m0 0h4l-6 12-3 1 3-10z" fill="#3B2B3C"/>
<path transform="translate(1497,457)" d="m0 0 5 1v8l-4 1-1-1z" fill="#362A37"/>
<path transform="translate(1423,1540)" d="m0 0 4 1v10h-4z" fill="#402C40"/>
<path transform="translate(1422,1445)" d="m0 0 5 1v9h-5z" fill="#332935"/>
<path transform="translate(1e3 1409)" d="m0 0h3l-1 9-4 5 1-10z" fill="#332935"/>
<path transform="translate(1437 1e3)" d="m0 0h9l2 1-1 3h-10z" fill="#3B2B3C"/>
<path transform="translate(377,996)" d="m0 0h9l2 1-1 3h-10l-1-3z" fill="#3B2B3C"/>
<path transform="translate(361,996)" d="m0 0h9l2 1-1 3h-10l-1-3z" fill="#312933"/>
<path transform="translate(1398,647)" d="m0 0h8l1 4-10 1-1-4z" fill="#462D45"/>
<path transform="translate(1497,553)" d="m0 0 5 1-1 9h-4z" fill="#312933"/>
<path transform="translate(1490,200)" d="m0 0h2v3h5l-3 9h-1l-1-6-4-4z" fill="#462D45"/>
<path transform="translate(1422,1509)" d="m0 0 5 1v9h-4z" fill="#412C41"/>
<path transform="translate(1422,1493)" d="m0 0 5 1v9h-4z" fill="#3E2B3E"/>
<path transform="translate(1422,1477)" d="m0 0 5 1v9h-4z" fill="#392A3A"/>
<path transform="translate(1422,1461)" d="m0 0 5 1v9h-4z" fill="#332935"/>
<path transform="translate(1581,1138)" d="m0 0 10 1 1 4-11-1z" fill="#412C41"/>
<path transform="translate(697,1743)" d="m0 0h7v4h-10v-3z" fill="#412C41"/>
<path transform="translate(948,1463)" d="m0 0h5v2l-10 3h-3l1-4z" fill="#392A3A"/>
<path transform="translate(1056,1333)" d="m0 0 10 1-1 4-8-1-2-3z" fill="#332935"/>
<path transform="translate(585,996)" d="m0 0h9l2 1v3h-11l-1-3z" fill="#392A3A"/>
<path transform="translate(569,996)" d="m0 0h9l2 1v3h-11l-1-3z" fill="#412C41"/>
<path transform="translate(1366,1788)" d="m0 0 4 2 2 10h-3l-3-8z" fill="#392A3A"/>
<path transform="translate(805,1545)" d="m0 0 4 1v9l-4 1z" fill="#362A38"/>
<path transform="translate(1787,1419)" d="m0 0 7 1 1 1v5l-8-2z" fill="#362A38"/>
<path transform="translate(1135,1335)" d="m0 0h11l-1 4h-9z" fill="#392A3A"/>
<path transform="translate(1119,1335)" d="m0 0h11l-1 4h-9z" fill="#312933"/>
<path transform="translate(1103,1335)" d="m0 0h11l-1 4h-9z" fill="#332935"/>
<path transform="translate(1e3 1313)" d="m0 0 4 1v10h-4z" fill="#3C2B3D"/>
<path transform="translate(1798,1177)" d="m0 0h3l1 4v6l-2 1-2-1z" fill="#422C42"/>
<path transform="translate(1453 1e3)" d="m0 0 11 1v3h-11z" fill="#452D44"/>
<path transform="translate(1389 1e3)" d="m0 0h10v4h-10z" fill="#332935"/>
<path transform="translate(957,772)" d="m0 0 9 1 4 4-12-1z" fill="#3C2B3D"/>
<path transform="translate(925,771)" d="m0 0h9l2 1v3h-11l-1-3z" fill="#3F2C3F"/>
<path transform="translate(910,771)" d="m0 0h9l1 4h-11z" fill="#3C2B3D"/>
<path transform="translate(728,699)" d="m0 0 3 2v11h-3l-1-12z" fill="#4A2E49"/>
<path transform="translate(1051,649)" d="m0 0h5l-1 3-8 3-4-1 3-3z" fill="#332935"/>
<path transform="translate(1497,585)" d="m0 0 4 1-1 9-4 1z" fill="#312933"/>
<path transform="translate(855,1468)" d="m0 0 3 1-11 6-4 1 2-4z" fill="#352D3B"/>
<path transform="translate(1087,1335)" d="m0 0h11l-1 4h-9z" fill="#362A38"/>
<path transform="translate(1741,1140)" d="m0 0h10v4h-10z" fill="#362A38"/>
<path transform="translate(1725,1140)" d="m0 0h10v4h-10z" fill="#312933"/>
<path transform="translate(1709,1140)" d="m0 0h10v4h-10z" fill="#312933"/>
<path transform="translate(1693,1140)" d="m0 0h10v4h-10z" fill="#312933"/>
<path transform="translate(1677,1140)" d="m0 0h10v4h-10z" fill="#312933"/>
<path transform="translate(1661,1140)" d="m0 0h10v4h-10z" fill="#312933"/>
<path transform="translate(1645,1140)" d="m0 0h10v4h-10z" fill="#362A38"/>
<path transform="translate(289,997)" d="m0 0 3 2-1 3h-9l-1-4z" fill="#312933"/>
<path transform="translate(265,998)" d="m0 0h11l-1 4-11-1z" fill="#362A38"/>
<path transform="translate(441,996)" d="m0 0 11 1v3h-11z" fill="#3C2B3D"/>
<path transform="translate(393,996)" d="m0 0h9l2 1-1 3h-10l-1-3z" fill="#362A38"/>
<path transform="translate(895,771)" d="m0 0h8l1 4h-11v-3z" fill="#3C2B3D"/>
<path transform="translate(796,771)" d="m0 0h10l2 1v3h-11z" fill="#3C2B3D"/>
<path transform="translate(1301,648)" d="m0 0h9v4h-9z" fill="#362A38"/>
<path transform="translate(1285,648)" d="m0 0h9v4h-9z" fill="#362A38"/>
<path transform="translate(1269,648)" d="m0 0h9v4h-9z" fill="#362A38"/>
<path transform="translate(1253,648)" d="m0 0h9v4h-9z" fill="#362A38"/>
<path transform="translate(1429,647)" d="m0 0h11l-1 3-10 1z" fill="#332935"/>
<path transform="translate(663,1743)" d="m0 0h10l-1 4h-8l-2-1z" fill="#322C39"/>
<path transform="translate(1264,1335)" d="m0 0h10l-1 4-5-2-1 3-4-2z" fill="#432C42"/>
<path transform="translate(1168,1335)" d="m0 0h10l-1 4-4-1-5 1z" fill="#402C40"/>
<path transform="translate(1152,1335)" d="m0 0h10l-1 4-4-1-5 1z" fill="#402C40"/>
<path transform="translate(1523,1072)" d="m0 0 3 1 1 11-2 1-3-12z" fill="#492E48"/>
<path transform="translate(522,996)" d="m0 0 10 1v3h-11l-1-3z" fill="#3A2A3A"/>
<path transform="translate(506,996)" d="m0 0 10 1v3h-11l-1-3z" fill="#3A2A3A"/>
<path transform="translate(490,996)" d="m0 0 10 1v3h-11l-1-3z" fill="#3A2A3A"/>
<path transform="translate(474,996)" d="m0 0 10 1v3h-11l-1-3z" fill="#3A2A3A"/>
<path transform="translate(458,996)" d="m0 0 10 1v3h-11l-1-3z" fill="#3A2A3A"/>
<path transform="translate(425,996)" d="m0 0 11 1v3h-11l-1-3z" fill="#3A2A3A"/>
<path transform="translate(553,996)" d="m0 0 11 1v3h-11l-1-3z" fill="#372A38"/>
<path transform="translate(409,996)" d="m0 0 11 1v3h-11l-1-3z" fill="#342935"/>
<path transform="translate(1333,648)" d="m0 0h9v4h-9z" fill="#372A38"/>
<path transform="translate(1317,648)" d="m0 0h9v4h-9z" fill="#372A38"/>
<path transform="translate(1189,648)" d="m0 0h9l1 4h-10z" fill="#3D2B3D"/>
<path transform="translate(727,524)" d="m0 0 4 1v7l-2 4-2-1z" fill="#5B3862"/>
<path transform="translate(1479,1788)" d="m0 0h2l-1 9-2 3h-3l3-9z" fill="#372A38"/>
<path transform="translate(748,1742)" d="m0 0h5l-1 3-4 1h-8l-1-2z" fill="#402C40"/>
<path transform="translate(805,1561)" d="m0 0 4 1-1 10h-3z" fill="#372A38"/>
<path transform="translate(867,1465)" d="m0 0h4v3l-10 2-2-2z" fill="#342935"/>
<path transform="translate(1327,1335)" d="m0 0h11l-1 4-5-1-4 1z" fill="#372A38"/>
<path transform="translate(1311,1335)" d="m0 0h11l-1 4-6-2v2l-4-1z" fill="#372A38"/>
<path transform="translate(1223,1334)" d="m0 0 2 1v4l-4-1-4 2-1-5z" fill="#3D2B3D"/>
<path transform="translate(1e3 1329)" d="m0 0 5 1-1 10h-3z" fill="#342935"/>
<path transform="translate(1010,1143)" d="m0 0 5 1 1 3-5 1h-4v-4z" fill="#FCFCFC"/>
<path transform="translate(1598,1139)" d="m0 0 9 1 1 3h-11z" fill="#342935"/>
<path transform="translate(1372 1e3)" d="m0 0h11l1 3h-12z" fill="#372A38"/>
<path transform="translate(538,996)" d="m0 0 10 1v3h-11l-1-3z" fill="#372A38"/>
<path transform="translate(249,997)" d="m0 0 10 1v3l-2 1-8-2z" fill="#3A2A3B"/>
<path transform="translate(207,811)" d="m0 0 3 1v8l-1 5-2-1z" fill="#653461"/>
<path transform="translate(780,769)" d="m0 0 12 2v3l-11-2-2-2z" fill="#312933"/>
<path transform="translate(1349,648)" d="m0 0h9v4h-9l-1-3z" fill="#3A2A3B"/>
<path transform="translate(1237,648)" d="m0 0h9v4h-9z" fill="#312933"/>
<path transform="translate(1221,648)" d="m0 0h9v4h-9z" fill="#342935"/>
<path transform="translate(1205,648)" d="m0 0h9v4h-9z" fill="#372A38"/>
<path transform="translate(1468,200)" d="m0 0h2v3l-12 6-2-1 7-6z" fill="#312933"/>
<path transform="translate(709,1744)" d="m0 0h12l-1 3h-10z" fill="#312933"/>
<path transform="translate(805,1593)" d="m0 0 4 1-1 10h-3z" fill="#3D2B3E"/>
<path transform="translate(805,1577)" d="m0 0 4 1-1 10h-3z" fill="#372A38"/>
<path transform="translate(1e3 1393)" d="m0 0h3v11l-4-1z" fill="#372A38"/>
<path transform="translate(1e3 1345)" d="m0 0h4v11h-3z" fill="#342935"/>
<path transform="translate(1343,1335)" d="m0 0h11l-2 4-4-1-4 1z" fill="#3A2B3B"/>
<path transform="translate(1295,1335)" d="m0 0h11l-1 4-6-2v2l-4-1z" fill="#342935"/>
<path transform="translate(1280,1335)" d="m0 0h10l-1 4-5-1-4 1z" fill="#342935"/>
<path transform="translate(1232,1335)" d="m0 0h9v4l-4-1-4 2z" fill="#3A2B3B"/>
<path transform="translate(1629,1140)" d="m0 0h10v4h-10z" fill="#3A2B3B"/>
<path transform="translate(300,997)" d="m0 0h5l1 2-3 3h-5v-4z" fill="#372A38"/>
<path transform="translate(1380,648)" d="m0 0h11v3l-10 1z" fill="#3A2B3B"/>
<path transform="translate(725,1744)" d="m0 0h12v2l-2 1h-9z" fill="#342935"/>
<path transform="translate(805,1641)" d="m0 0h3v11h-3z" fill="#342935"/>
<path transform="translate(805,1625)" d="m0 0h3v11h-3z" fill="#372A38"/>
<path transform="translate(805,1609)" d="m0 0h3v11h-3z" fill="#3E2B3E"/>
<path transform="translate(924,1465)" d="m0 0h11v3h-11z" fill="#372A38"/>
<path transform="translate(892,1465)" d="m0 0h11v3h-11z" fill="#342935"/>
<path transform="translate(876,1465)" d="m0 0h11v3h-11z" fill="#342935"/>
<path transform="translate(1e3 1377)" d="m0 0h3v11h-3z" fill="#312933"/>
<path transform="translate(1e3 1361)" d="m0 0h3v11h-3z" fill="#312933"/>
<path transform="translate(1248,1335)" d="m0 0h9v4l-5-2-1 3-3-1z" fill="#3A2B3B"/>
<path transform="translate(1200,1335)" d="m0 0h9v4l-4-1-3 2-2-1z" fill="#3A2B3B"/>
<path transform="translate(1072,1334)" d="m0 0 10 1v3h-11z" fill="#372A38"/>
<path transform="translate(1613,1140)" d="m0 0h10v4l-10-1z" fill="#372A38"/>
<path transform="translate(208,941)" d="m0 0h2v12h-3v-11z" fill="#3E2B3E"/>
<path transform="translate(965,916)" d="m0 0h2l-1 5-2 2h-6v-3l5-1z" fill="#3A2B3B"/>
<path transform="translate(877,772)" d="m0 0h11v3h-11z" fill="#342935"/>
<path transform="translate(861,772)" d="m0 0h11v3h-11z" fill="#312933"/>
<path transform="translate(845,772)" d="m0 0h11v3h-11z" fill="#312933"/>
<path transform="translate(829,772)" d="m0 0h11v3h-11z" fill="#312933"/>
<path transform="translate(1365,648)" d="m0 0h10v3l-10 1-1-3z" fill="#342935"/>
<path transform="translate(1173,648)" d="m0 0h9l1 3-7 1h-3z" fill="#342935"/>
<path transform="translate(908,1465)" d="m0 0h10l1 3h-11z" fill="#312933"/>
<path transform="translate(1184,1335)" d="m0 0h9v4l-4-1-5 1z" fill="#342935"/>
<path transform="translate(1157,648)" d="m0 0h9l1 3-3 1h-7z" fill="#342935"/>
<path transform="translate(1141,648)" d="m0 0h9l1 3-10 1-1-3z" fill="#342935"/>
<path transform="translate(1125,648)" d="m0 0h10v3l-10 1-1-3z" fill="#3B2B3B"/>
<path transform="translate(1108,648)" d="m0 0h11v3h-10z" fill="#312933"/>
<path transform="translate(728,507)" d="m0 0 3 2-1 11-2 1-1-13z" fill="#383244"/>
<path transform="translate(489,1768)" d="m0 0h5l2 3-2 2h-5l-1-4z" fill="#FCFCFC"/>
<path transform="translate(805,1673)" d="m0 0h3v11l-3 1z" fill="#342936"/>
<path transform="translate(1155,1144)" d="m0 0h7v4h-8z" fill="#FCFCFC"/>
<path transform="translate(1757,1140)" d="m0 0h9l1 3-10 1z" fill="#312933"/>
<path transform="translate(207,908)" d="m0 0 3 1-1 13-2-2z" fill="#492E48"/>
<path transform="translate(207,893)" d="m0 0h3v8l-2 4-1-1z" fill="#543051"/>
<path transform="translate(207,845)" d="m0 0h3v10h-3z" fill="#62335D"/>
<path transform="translate(940,772)" d="m0 0h12v3h-11z" fill="#342936"/>
<path transform="translate(812,772)" d="m0 0h12v3h-11z" fill="#2F2C37"/>
<path transform="translate(1085,647)" d="m0 0 2 1-1 3h-10l-1-3z" fill="#3B2B3C"/>
<path transform="translate(727,540)" d="m0 0 4 1-1 10h-3z" fill="#4D2E4B"/>
<path transform="translate(805,1657)" d="m0 0h3v11h-3z" fill="#3B2B3C"/>
<path transform="translate(1103,1138)" d="m0 0 5 2v4h-5l-1-5z" fill="#FCFCFC"/>
<path transform="translate(207,877)" d="m0 0h3v9l-2 2-1-1z" fill="#553052"/>
<path transform="translate(1061,648)" d="m0 0h10v2l-2 1h-9z" fill="#312933"/>
<path transform="translate(844,1473)" d="m0 0m-1 1m-3 1 3 1-10 8h-3l8-8z" fill="#312933"/>
<path transform="translate(727,684)" d="m0 0 4 2-1 10h-2z" fill="#3E3044"/>
<path transform="translate(1027,661)" d="m0 0m-1 1m-1 1v3l-6 6h-2l2-4z" fill="#3C2B3C"/>
<path transform="translate(1092,648)" d="m0 0h11v3h-10z" fill="#312933"/>
<path transform="translate(727,556)" d="m0 0 4 1-1 10-2 1-1-3z" fill="#472D46"/>
<path transform="translate(1453,284)" d="m0 0h2l-1 4-3 6h-2l-2-7 4 1z" fill="#342936"/>
<path transform="translate(207,861)" d="m0 0h3v9l-2 2-1-4z" fill="#5B3258"/>
<path transform="translate(207,829)" d="m0 0h3v7l-1 4h-2z" fill="#6B3565"/>
<path transform="translate(727,572)" d="m0 0h3l1 3-1 8-2 1-1-3z" fill="#4C2E4A"/>
<path transform="translate(1161,1150)" d="m0 0 1 4-2 2h-5v-3z" fill="#FCFCFC"/>
<path transform="translate(1011,1151)" d="m0 0h4l-1 4-5 1v-4z" fill="#FCFCFC"/>
<path transform="translate(727,652)" d="m0 0 4 2-1 9-2 1z" fill="#44314A"/>
</svg>
